<svg width="204" height="72" viewBox="0 0 204 72" fill="none" xmlns="http://www.w3.org/2000/svg">
<path d="M56.5479 28.1929C56.5479 42.4833 38.0099 63.4049 30.9561 70.8482C30.6101 71.2121 30.1935 71.5018 29.7316 71.6999C29.2697 71.8979 28.7722 72 28.2694 72C27.7666 72 27.2691 71.8979 26.8071 71.6999C26.3452 71.5018 25.9286 71.2121 25.5827 70.8482C18.5215 63.4506 0 42.6553 0 28.1929C0 20.7157 2.97885 13.5447 8.28125 8.25752C13.5836 2.97032 20.7752 0 28.274 0C35.7727 0 42.9643 2.97032 48.2667 8.25752C53.5691 13.5447 56.5479 20.7157 56.5479 28.1929Z" fill="#7956FF"/>
<path opacity="0.5" d="M30.8567 43.2779H17.6789C16.6623 43.2779 15.834 42.4496 15.834 41.4331V32.7734C15.834 31.7191 16.6623 30.8908 17.6789 30.8908H27.4304C27.9575 30.8908 28.3717 31.305 28.3717 31.8321V32.7734V33.7146C28.3717 34.2417 27.9575 34.6559 27.4304 34.6559H19.5238V39.5505H30.819C34.4335 39.5505 37.3326 36.6137 37.3326 33.0369V32.4722C37.3326 28.8953 34.4335 25.9586 30.819 25.9586C29.8024 25.9586 28.9365 25.1302 28.9365 24.1137C28.9365 23.0971 29.7648 22.2688 30.7814 22.2688C36.4666 22.2311 41.06 26.8245 41.06 32.4722V33.0369C41.06 38.6845 36.5043 43.2779 30.8567 43.2779Z" fill="white"/>
<path d="M39.2151 13.5714H26.075C20.4274 13.5714 15.834 18.1648 15.834 23.8124V24.3772C15.834 26.8622 16.7376 29.1212 18.206 30.8908C20.0885 33.1498 22.8747 34.5806 25.9997 34.5806H27.4304C27.9575 34.5806 28.3717 34.1664 28.3717 33.6393V31.7944C28.3717 31.2673 27.9575 30.8531 27.4304 30.8531H26.0374C22.4229 30.8531 19.5238 27.9164 19.5238 24.3395V23.7748C19.5238 20.1603 22.4605 17.2612 26.0374 17.2612H37.3326V22.2311H29.4259C28.8988 22.2311 28.4847 22.6453 28.4847 23.1724V25.0173C28.4847 25.5444 28.8988 25.9585 29.4259 25.9585H39.1775C40.1941 25.9585 41.0224 25.1302 41.0224 24.1136V15.454C41.06 14.3997 40.2317 13.5714 39.2151 13.5714Z" fill="white"/>
<path d="M90.275 25.425C90.075 25.775 89.8583 26.0333 89.625 26.2C89.4083 26.35 89.1333 26.425 88.8 26.425C88.45 26.425 88.0667 26.3 87.65 26.05C87.25 25.7833 86.7667 25.4917 86.2 25.175C85.6333 24.8583 84.9667 24.575 84.2 24.325C83.45 24.0583 82.5583 23.925 81.525 23.925C80.5917 23.925 79.775 24.0417 79.075 24.275C78.375 24.4917 77.7833 24.8 77.3 25.2C76.8333 25.6 76.4833 26.0833 76.25 26.65C76.0167 27.2 75.9 27.8083 75.9 28.475C75.9 29.325 76.1333 30.0333 76.6 30.6C77.0833 31.1667 77.7167 31.65 78.5 32.05C79.2833 32.45 80.175 32.8083 81.175 33.125C82.175 33.4417 83.2 33.7833 84.25 34.15C85.3 34.5 86.325 34.9167 87.325 35.4C88.325 35.8667 89.2167 36.4667 90 37.2C90.7833 37.9167 91.4083 38.8 91.875 39.85C92.3583 40.9 92.6 42.175 92.6 43.675C92.6 45.3083 92.3167 46.8417 91.75 48.275C91.2 49.6917 90.3833 50.9333 89.3 52C88.2333 53.05 86.925 53.8833 85.375 54.5C83.825 55.1 82.05 55.4 80.05 55.4C78.9 55.4 77.7667 55.2833 76.65 55.05C75.5333 54.8333 74.4583 54.5167 73.425 54.1C72.4083 53.6833 71.45 53.1833 70.55 52.6C69.65 52.0167 68.85 51.3667 68.15 50.65L70.125 47.425C70.2917 47.1917 70.5083 47 70.775 46.85C71.0417 46.6833 71.325 46.6 71.625 46.6C72.0417 46.6 72.4917 46.775 72.975 47.125C73.4583 47.4583 74.0333 47.8333 74.7 48.25C75.3667 48.6667 76.1417 49.05 77.025 49.4C77.925 49.7333 79 49.9 80.25 49.9C82.1667 49.9 83.65 49.45 84.7 48.55C85.75 47.6333 86.275 46.325 86.275 44.625C86.275 43.675 86.0333 42.9 85.55 42.3C85.0833 41.7 84.4583 41.2 83.675 40.8C82.8917 40.3833 82 40.0333 81 39.75C80 39.4667 78.9833 39.1583 77.95 38.825C76.9167 38.4917 75.9 38.0917 74.9 37.625C73.9 37.1583 73.0083 36.55 72.225 35.8C71.4417 35.05 70.8083 34.1167 70.325 33C69.8583 31.8667 69.625 30.475 69.625 28.825C69.625 27.5083 69.8833 26.225 70.4 24.975C70.9333 23.725 71.7 22.6167 72.7 21.65C73.7 20.6833 74.9333 19.9083 76.4 19.325C77.8667 18.7417 79.55 18.45 81.45 18.45C83.5833 18.45 85.55 18.7833 87.35 19.45C89.15 20.1167 90.6833 21.05 91.95 22.25L90.275 25.425ZM103.178 48.35C103.878 49.2 104.636 49.8 105.453 50.15C106.286 50.5 107.186 50.675 108.153 50.675C109.086 50.675 109.928 50.5 110.678 50.15C111.428 49.8 112.061 49.2667 112.578 48.55C113.111 47.8333 113.52 46.9333 113.803 45.85C114.086 44.75 114.228 43.4583 114.228 41.975C114.228 40.475 114.103 39.2083 113.853 38.175C113.62 37.125 113.278 36.275 112.828 35.625C112.378 34.975 111.828 34.5 111.178 34.2C110.545 33.9 109.82 33.75 109.003 33.75C107.72 33.75 106.628 34.025 105.728 34.575C104.828 35.1083 103.978 35.8667 103.178 36.85V48.35ZM102.853 32.85C103.903 31.6667 105.095 30.7083 106.428 29.975C107.761 29.2417 109.328 28.875 111.128 28.875C112.528 28.875 113.803 29.1667 114.953 29.75C116.12 30.3333 117.12 31.1833 117.953 32.3C118.803 33.4 119.453 34.7667 119.903 36.4C120.37 38.0167 120.603 39.875 120.603 41.975C120.603 43.8917 120.345 45.6667 119.828 47.3C119.311 48.9333 118.57 50.35 117.603 51.55C116.653 52.75 115.495 53.6917 114.128 54.375C112.778 55.0417 111.261 55.375 109.578 55.375C108.145 55.375 106.92 55.1583 105.903 54.725C104.886 54.275 103.978 53.6583 103.178 52.875V63.375H97.0031V29.35H100.778C101.578 29.35 102.103 29.725 102.353 30.475L102.853 32.85ZM138.971 44.05C137.188 44.1333 135.688 44.2917 134.471 44.525C133.254 44.7417 132.279 45.025 131.546 45.375C130.813 45.725 130.288 46.1333 129.971 46.6C129.654 47.0667 129.496 47.575 129.496 48.125C129.496 49.2083 129.813 49.9833 130.446 50.45C131.096 50.9167 131.938 51.15 132.971 51.15C134.238 51.15 135.329 50.925 136.246 50.475C137.179 50.0083 138.088 49.3083 138.971 48.375V44.05ZM124.821 32.925C127.771 30.225 131.321 28.875 135.471 28.875C136.971 28.875 138.313 29.125 139.496 29.625C140.679 30.1083 141.679 30.7917 142.496 31.675C143.313 32.5417 143.929 33.5833 144.346 34.8C144.779 36.0167 144.996 37.35 144.996 38.8V55H142.196C141.613 55 141.163 54.9167 140.846 54.75C140.529 54.5667 140.279 54.2083 140.096 53.675L139.546 51.825C138.896 52.4083 138.263 52.925 137.646 53.375C137.029 53.8083 136.388 54.175 135.721 54.475C135.054 54.775 134.338 55 133.571 55.15C132.821 55.3167 131.988 55.4 131.071 55.4C129.988 55.4 128.988 55.2583 128.071 54.975C127.154 54.675 126.363 54.2333 125.696 53.65C125.029 53.0667 124.513 52.3417 124.146 51.475C123.779 50.6083 123.596 49.6 123.596 48.45C123.596 47.8 123.704 47.1583 123.921 46.525C124.138 45.875 124.488 45.2583 124.971 44.675C125.471 44.0917 126.113 43.5417 126.896 43.025C127.679 42.5083 128.638 42.0583 129.771 41.675C130.921 41.2917 132.254 40.9833 133.771 40.75C135.288 40.5 137.021 40.35 138.971 40.3V38.8C138.971 37.0833 138.604 35.8167 137.871 35C137.138 34.1667 136.079 33.75 134.696 33.75C133.696 33.75 132.863 33.8667 132.196 34.1C131.546 34.3333 130.971 34.6 130.471 34.9C129.971 35.1833 129.513 35.4417 129.096 35.675C128.696 35.9083 128.246 36.025 127.746 36.025C127.313 36.025 126.946 35.9167 126.646 35.7C126.346 35.4667 126.104 35.2 125.921 34.9L124.821 32.925ZM176.345 55H170.17V33.975H158.27V47.875C158.27 48.675 158.462 49.3 158.845 49.75C159.245 50.2 159.787 50.425 160.47 50.425C160.853 50.425 161.17 50.3833 161.42 50.3C161.687 50.2 161.912 50.1 162.095 50C162.295 49.9 162.47 49.8083 162.62 49.725C162.77 49.625 162.92 49.575 163.07 49.575C163.253 49.575 163.403 49.625 163.52 49.725C163.637 49.8083 163.762 49.9417 163.895 50.125L165.745 53.125C164.845 53.875 163.812 54.4417 162.645 54.825C161.478 55.2083 160.27 55.4 159.02 55.4C156.787 55.4 155.07 54.775 153.87 53.525C152.687 52.2583 152.095 50.5167 152.095 48.3V33.975H149.47C149.137 33.975 148.853 33.8667 148.62 33.65C148.387 33.4333 148.27 33.1083 148.27 32.675V30.225L152.395 29.525L153.695 22.55C153.778 22.2167 153.937 21.9583 154.17 21.775C154.403 21.5917 154.703 21.5 155.07 21.5H158.27V29.575H176.345V55ZM177.42 21.775C177.42 22.3083 177.312 22.8167 177.095 23.3C176.878 23.7667 176.587 24.175 176.22 24.525C175.87 24.875 175.445 25.1583 174.945 25.375C174.462 25.575 173.945 25.675 173.395 25.675C172.862 25.675 172.362 25.575 171.895 25.375C171.428 25.1583 171.02 24.875 170.67 24.525C170.32 24.175 170.037 23.7667 169.82 23.3C169.62 22.8167 169.52 22.3083 169.52 21.775C169.52 21.225 169.62 20.7167 169.82 20.25C170.037 19.7667 170.32 19.35 170.67 19C171.02 18.6333 171.428 18.35 171.895 18.15C172.362 17.9333 172.862 17.825 173.395 17.825C173.945 17.825 174.462 17.9333 174.945 18.15C175.445 18.35 175.87 18.6333 176.22 19C176.587 19.35 176.878 19.7667 177.095 20.25C177.312 20.7167 177.42 21.225 177.42 21.775ZM201.023 34.775C200.839 35.0083 200.656 35.1917 200.473 35.325C200.306 35.4583 200.056 35.525 199.723 35.525C199.406 35.525 199.098 35.4333 198.798 35.25C198.498 35.05 198.139 34.8333 197.723 34.6C197.306 34.35 196.806 34.1333 196.223 33.95C195.656 33.75 194.948 33.65 194.098 33.65C193.014 33.65 192.064 33.85 191.248 34.25C190.431 34.6333 189.748 35.1917 189.198 35.925C188.664 36.6583 188.264 37.55 187.998 38.6C187.731 39.6333 187.598 40.8083 187.598 42.125C187.598 43.4917 187.739 44.7083 188.023 45.775C188.323 46.8417 188.748 47.7417 189.298 48.475C189.848 49.1917 190.514 49.7417 191.298 50.125C192.081 50.4917 192.964 50.675 193.948 50.675C194.931 50.675 195.723 50.5583 196.323 50.325C196.939 50.075 197.456 49.8083 197.873 49.525C198.289 49.225 198.648 48.9583 198.948 48.725C199.264 48.475 199.614 48.35 199.998 48.35C200.498 48.35 200.873 48.5417 201.123 48.925L202.898 51.175C202.214 51.975 201.473 52.65 200.673 53.2C199.873 53.7333 199.039 54.1667 198.173 54.5C197.323 54.8167 196.439 55.0417 195.523 55.175C194.623 55.3083 193.723 55.375 192.823 55.375C191.239 55.375 189.748 55.0833 188.348 54.5C186.948 53.9 185.723 53.0333 184.673 51.9C183.623 50.7667 182.789 49.3833 182.173 47.75C181.573 46.1 181.273 44.225 181.273 42.125C181.273 40.2417 181.539 38.5 182.073 36.9C182.623 35.2833 183.423 33.8917 184.473 32.725C185.523 31.5417 186.823 30.6167 188.373 29.95C189.923 29.2833 191.706 28.95 193.723 28.95C195.639 28.95 197.314 29.2583 198.748 29.875C200.198 30.4917 201.498 31.375 202.648 32.525L201.023 34.775Z" fill="white"/>
</svg>
